<?xml version="1.0" encoding="UTF-8" standalone="no"?>
<!-- Created with Inkscape (http://www.inkscape.org/) -->

<svg
   width="60mm"
   height="12mm"
   viewBox="0 0 60 12"
   version="1.1"
   id="svg5"
   inkscape:version="1.2 (1:1.2.1+202207142221+cd75a1ee6d)"
   sodipodi:docname="markmeld_logo_long.svg"
   xmlns:inkscape="http://www.inkscape.org/namespaces/inkscape"
   xmlns:sodipodi="http://sodipodi.sourceforge.net/DTD/sodipodi-0.dtd"
   xmlns="http://www.w3.org/2000/svg"
   xmlns:svg="http://www.w3.org/2000/svg">
  <sodipodi:namedview
     id="namedview7"
     pagecolor="#191919"
     bordercolor="#666666"
     borderopacity="1.0"
     inkscape:pageshadow="2"
     inkscape:pageopacity="0"
     inkscape:pagecheckerboard="0"
     inkscape:document-units="mm"
     showgrid="false"
     inkscape:zoom="6.4064541"
     inkscape:cx="128.62029"
     inkscape:cy="74.768349"
     inkscape:window-width="2488"
     inkscape:window-height="1343"
     inkscape:window-x="1272"
     inkscape:window-y="231"
     inkscape:window-maximized="1"
     inkscape:current-layer="layer1"
     inkscape:snap-global="false"
     inkscape:showpageshadow="2"
     inkscape:deskcolor="#191919" />
  <defs
     id="defs2" />
  <g
     inkscape:label="Layer 1"
     inkscape:groupmode="layer"
     id="layer1">
    <g
       id="g1768"
       transform="matrix(1.7949691,0,0,1.7949691,-27.135218,-11.341666)" />
    <g
       id="g2277"
       style="stroke:#b3b3b3"
       transform="matrix(0.64013404,0,0,0.64013404,-71.684933,-9.4106128)">
      <g
         aria-label="markmeld"
         transform="scale(0.99254066,1.0075154)"
         id="text2269"
         style="font-size:24.2837px;font-family:Uroob;-inkscape-font-specification:Uroob;letter-spacing:0px;word-spacing:0px;fill:#00aa00;stroke-width:0.314388">
        <g
           id="path2279">
          <path
             style="color:#000000;-inkscape-font-specification:Uroob;stroke:none;-inkscape-stroke:none"
             d="m 138.67109,20.69343 q 0.53357,-0.830009 1.41101,-0.830009 h 2.25289 q 1.03158,0 1.77859,0.699579 0.74701,0.69958 0.74701,1.74302 v 9.106388 h -2.0276 V 22.69731 q 0,-0.450577 -0.26086,-0.758866 -0.249,-0.320146 -0.73515,-0.320146 h -1.61259 q -0.59286,0 -0.77072,0.818152 -0.0474,0.213431 -0.0474,0.39129 v 8.584668 h -2.03945 v -8.904815 q 0,-0.592863 -0.62844,-0.830009 -0.17786,-0.07114 -0.35572,-0.05929 h -1.73116 q -0.71144,0 -0.71144,1.671876 v 8.122234 h -2.03945 V 19.863421 h 1.81417 v 0.711437 q 0.52172,-0.711437 1.26872,-0.711437 h 2.13431 q 0.99602,0 1.55331,0.830009 z"
             id="path2298" />
          <path
             style="color:#000000;-inkscape-font-specification:Uroob;fill:#b3b3b3;stroke:none;-inkscape-stroke:none"
             d="m 131.74414,19.707031 v 11.863281 h 2.35352 v -8.279296 c 0,-0.546143 0.0603,-0.949456 0.16406,-1.19336 0.10379,-0.243903 0.21504,-0.322265 0.39062,-0.322265 h 1.73633 0.004 c 0.0943,-0.0063 0.1881,0.0092 0.28711,0.04883 h 0.002 0.002 c 0.37848,0.14282 0.52539,0.343894 0.52539,0.683593 v 9.0625 h 2.35352 v -8.742187 c 0,-0.104608 0.0153,-0.224156 0.0449,-0.357422 0.0554,-0.255003 0.14132,-0.433943 0.24219,-0.541016 0.10086,-0.107072 0.21353,-0.154296 0.375,-0.154296 h 1.61328 c 0.28959,0 0.47381,0.08547 0.60938,0.259765 l 0.002,0.002 0.002,0.002 c 0.14952,0.176699 0.22461,0.388155 0.22461,0.658204 v 8.873046 h 2.3418 v -9.263671 c 0,-0.733139 -0.27041,-1.364383 -0.79688,-1.857422 -0.52435,-0.491063 -1.16151,-0.742188 -1.88476,-0.742188 h -2.25391 c -0.5677,0 -1.01497,0.333493 -1.38086,0.806641 -0.3919,-0.513061 -0.92487,-0.806641 -1.58398,-0.806641 h -2.13282 c -0.43663,0 -0.78508,0.292252 -1.11328,0.617188 v -0.617188 z m 0.31445,0.314453 h 1.49805 v 1.033203 l 0.28516,-0.386718 c 0.32665,-0.44544 0.69448,-0.646485 1.14257,-0.646485 h 2.13282 c 0.58374,0 1.00082,0.25838 1.33984,0.714844 l -0.0742,0.115234 h 0.28906 0.29493 l -0.082,-0.121093 c 0.32217,-0.453139 0.69624,-0.708985 1.19726,-0.708985 h 2.25391 c 0.65218,0 1.19826,0.214542 1.66992,0.65625 0.46954,0.439733 0.69726,0.970793 0.69726,1.628907 v 8.949218 h -1.71289 v -8.558593 c 0,-0.329149 -0.10045,-0.623606 -0.29687,-0.857422 -0.19649,-0.25119 -0.49785,-0.378907 -0.85547,-0.378907 h -1.61328 c -0.23378,0 -0.44747,0.08826 -0.60352,0.253907 -0.15604,0.165644 -0.25717,0.397069 -0.32031,0.6875 -0.0336,0.151309 -0.0508,0.293244 -0.0508,0.425781 v 8.427734 h -1.72656 v -8.748047 c 0,-0.450783 -0.27103,-0.803188 -0.73047,-0.976562 -0.137,-0.05421 -0.27834,-0.07974 -0.41992,-0.07031 h -1.72071 c -0.29871,0 -0.54633,0.200284 -0.67968,0.513672 -0.13336,0.313389 -0.18946,0.747967 -0.18946,1.316407 v 7.964843 h -1.72461 z"
             id="path2300" />
        </g>
        <g
           id="path2281">
          <path
             style="color:#000000;-inkscape-font-specification:Uroob;stroke:none;-inkscape-stroke:none"
             d="m 152.11724,22.626166 q 0,-0.996011 -0.96044,-0.996011 h -2.15803 q -0.35571,0 -0.55729,0.225288 -0.18971,0.213431 -0.20157,0.557292 h -2.03945 q 0.0237,-1.079012 0.69958,-1.82602 0.67586,-0.747009 1.7193,-0.747009 h 3.16589 q 1.01973,0 1.67188,0.735152 0.65215,0.735151 0.65215,1.790448 v 9.058959 h -1.98016 v -0.462434 q -0.6403,0.498006 -1.25688,0.498006 h -1.94459 q -1.07901,0 -1.95645,-0.69958 -0.87744,-0.699579 -0.87744,-1.719305 V 26.78807 q 0,-1.04344 0.87744,-1.74302 0.87744,-0.699579 1.95645,-0.699579 h 2.30031 q 0.47429,0 0.8893,0.26086 z m -0.0356,6.023496 V 27.17936 q 0,-0.450576 -0.26086,-0.758866 -0.24901,-0.320146 -0.73515,-0.320146 h -2.01574 q -0.49801,0 -0.7233,0.320146 -0.22528,0.30829 -0.22528,0.758866 v 1.470302 q 0,0.450577 0.22528,0.770723 0.22529,0.308289 0.7233,0.308289 h 2.01574 q 0.48614,0 0.73515,-0.308289 0.26086,-0.320146 0.26086,-0.770723 z"
             id="path2304" />
          <path
             style="color:#000000;-inkscape-font-specification:Uroob;fill:#b3b3b3;stroke:none;-inkscape-stroke:none"
             d="m 148.61914,19.681641 c -0.73314,0 -1.35836,0.270978 -1.83594,0.798828 -0.47523,0.525248 -0.72373,1.178345 -0.74023,1.929687 l -0.004,0.160156 h 2.35352 l 0.004,-0.152343 c 0.007,-0.200741 0.0631,-0.345039 0.16211,-0.457032 0.10375,-0.115951 0.2355,-0.173828 0.43946,-0.173828 h 2.1582 c 0.29298,0 0.4837,0.07286 0.60742,0.201172 0.12373,0.128308 0.19727,0.331932 0.19727,0.638672 v 1.775391 C 151.7252,24.294864 151.48833,24.1875 151.22852,24.1875 h -2.30079 c -0.75331,0 -1.44517,0.248409 -2.05468,0.734375 -0.61475,0.490135 -0.93555,1.125546 -0.93555,1.865234 v 2.253907 c 0,0.724903 0.32148,1.352202 0.93555,1.841796 0.60951,0.485967 1.30137,0.734375 2.05468,0.734375 h 1.94532 c 0.36833,0 0.73502,-0.199976 1.09961,-0.43164 v 0.396484 h 2.29296 v -9.216797 c 0,-0.735911 -0.23186,-1.376498 -0.6914,-1.894531 -0.46176,-0.520528 -1.07147,-0.789062 -1.78906,-0.789062 z m 0,0.314453 h 3.16602 c 0.64204,0 1.14691,0.22392 1.55468,0.683593 0.40999,0.462168 0.61133,1.014398 0.61133,1.685547 v 8.902344 h -1.66406 v -0.626953 l -0.25391,0.197266 c -0.40756,0.316991 -0.79142,0.464843 -1.16015,0.464843 h -1.94532 c -0.68536,0 -1.29897,-0.219209 -1.85937,-0.666015 C 146.51251,30.193542 146.25,29.675746 146.25,29.041016 v -2.253907 c 0,-0.651564 0.26319,-1.176503 0.81836,-1.61914 0.5604,-0.446806 1.17401,-0.666016 1.85937,-0.666016 h 2.30079 c 0.28737,0 0.55085,0.07873 0.80468,0.238281 l 0.24219,0.150391 v -2.263672 c 0,-0.357267 -0.0887,-0.653727 -0.28516,-0.857422 -0.19642,-0.203695 -0.48666,-0.296875 -0.83398,-0.296875 h -2.1582 c -0.27033,0 -0.50881,0.09291 -0.67383,0.277344 v 0.002 c -0.11764,0.132344 -0.15353,0.318372 -0.18555,0.503906 h -1.7207 c 0.0479,-0.603384 0.21316,-1.13734 0.59961,-1.564453 0.42357,-0.468161 0.94345,-0.695312 1.60156,-0.695312 z m 0.45117,5.947265 c -0.36569,0 -0.66999,0.128707 -0.85156,0.386719 -0.17098,0.234718 -0.25391,0.523716 -0.25391,0.849609 v 1.470704 c 0,0.326582 0.0837,0.619513 0.25391,0.861328 v 0.002 c 0.18275,0.250075 0.48712,0.373047 0.85156,0.373047 h 2.01563 c 0.35732,0 0.65999,-0.122763 0.85742,-0.367188 0.19672,-0.241426 0.29492,-0.53842 0.29492,-0.86914 v -1.470704 c 0,-0.329147 -0.0985,-0.623605 -0.29492,-0.857421 -0.19649,-0.25119 -0.49981,-0.378907 -0.85742,-0.378907 z m 0,0.314453 h 2.01563 c 0.28958,10e-7 0.47576,0.08547 0.61133,0.259766 l 0.002,0.002 0.002,0.002 c 0.14952,0.176699 0.22266,0.388155 0.22266,0.658203 v 1.470704 c 0,0.270048 -0.0735,0.484487 -0.22461,0.669921 v 0.002 c -0.13459,0.166626 -0.32242,0.25 -0.61328,0.25 h -2.01563 c -0.29839,0 -0.47804,-0.08246 -0.5957,-0.242188 v -0.002 c -0.12953,-0.184746 -0.19531,-0.404276 -0.19531,-0.677734 V 27.17978 c 0,-0.274185 0.0647,-0.489943 0.19336,-0.666015 l 0.002,-0.002 c 0.11882,-0.168849 0.29738,-0.253906 0.5957,-0.253907 z"
             id="path2306" />
        </g>
        <g
           id="path2283">
          <path
             style="color:#000000;-inkscape-font-specification:Uroob;stroke:none;-inkscape-stroke:none"
             d="m 160.63076,21.618298 -1.19758,-0.01186 q -1.49402,0 -1.9446,1.079012 -0.15414,0.367575 -0.15414,0.841866 v 7.885089 h -2.02759 l -0.0119,-10.505547 q -0.52172,0 -0.52172,-0.39129 v -0.687722 h 2.33588 v 1.079012 q 0.166,-0.474291 0.60472,-0.78258 0.43872,-0.308289 0.93673,-0.308289 h 1.98016 z"
             id="path2310" />
          <path
             style="color:#000000;-inkscape-font-specification:Uroob;fill:#b3b3b3;stroke:none;-inkscape-stroke:none"
             d="m 158.65039,19.658203 c -0.36444,0 -0.71197,0.116278 -1.02734,0.337891 -0.17074,0.119973 -0.24169,0.306772 -0.35743,0.464843 v -0.791015 h -2.65039 v 0.845703 c 0,0.165362 0.0662,0.324526 0.19336,0.419922 0.0864,0.06477 0.21181,0.07119 0.33008,0.08789 l 0.0117,10.546875 h 2.3418 v -8.042968 c 0,-0.299165 0.0472,-0.558436 0.14062,-0.78125 0.27636,-0.661797 0.84207,-0.981905 1.79883,-0.982422 l 1.35547,0.01367 v -0.158203 -1.960938 z m 0,0.314453 h 1.82227 v 1.486328 l -1.03907,-0.0098 c -1.03385,0 -1.76565,0.399433 -2.08984,1.175781 -0.11208,0.267286 -0.16602,0.569121 -0.16602,0.902344 v 7.728515 h -1.71484 L 155.45117,20.75 h -0.15625 c -0.15426,0 -0.25016,-0.03137 -0.29687,-0.06641 -0.0467,-0.03503 -0.0684,-0.07247 -0.0684,-0.167969 v -0.53125 h 2.02148 v 0.921875 l 0.30664,0.05273 c 0.0999,-0.285462 0.27779,-0.517946 0.54688,-0.707031 0.26958,-0.189439 0.54613,-0.279297 0.8457,-0.279297 z"
             id="path2312" />
        </g>
        <g
           id="path2285">
          <path
             style="color:#000000;-inkscape-font-specification:Uroob;stroke:none;-inkscape-stroke:none"
             d="m 169.34586,30.61797 q 0.10671,0.189717 0.10671,0.379433 0,0.177859 -0.14228,0.296432 -0.13043,0.118573 -0.33201,0.118573 h -1.29244 l -0.60472,-0.865582 -2.34774,-3.889186 -0.83001,1.363587 v 3.343752 h -2.03945 V 16.329953 h 2.03945 v 8.537238 l 2.34774,-3.877329 0.84187,-1.102726 h 1.05529 q 0.21344,0 0.39129,0.142287 0.17786,0.13043 0.17786,0.308289 0,0.166002 -0.17786,0.509863 -0.17785,0.343861 -0.46243,0.818152 -0.27272,0.474291 -0.60472,1.019726 -0.332,0.533577 -0.64029,1.031583 -0.30829,0.486148 -0.54544,0.865581 -0.23714,0.379433 -0.332,0.52172 z"
             id="path2316" />
          <path
             style="color:#000000;-inkscape-font-specification:Uroob;fill:#b3b3b3;stroke:none;-inkscape-stroke:none"
             d="m 161.70703,16.171875 v 15.349609 h 2.35352 v -3.457031 l 0.67187,-1.105469 2.2168,3.673828 0.6543,0.9375 h 1.375 c 0.16366,0 0.31718,-0.05401 0.43359,-0.158203 0.12328,-0.103759 0.19726,-0.25448 0.19726,-0.414062 10e-6,-0.15595 -0.0448,-0.31104 -0.12695,-0.457031 l -0.002,-0.002 v -0.0039 l -3.33985,-5.429687 c 0.0672,-0.102954 0.14681,-0.227469 0.2793,-0.439453 0.15787,-0.252581 0.33954,-0.541361 0.54492,-0.865235 v -0.002 c 0.20546,-0.331894 0.41935,-0.675627 0.64063,-1.03125 h 0.002 c 0.2216,-0.364064 0.4231,-0.704351 0.60547,-1.021484 v -0.002 c 0.19044,-0.317453 0.34628,-0.591204 0.4668,-0.824219 0.12331,-0.238409 0.19531,-0.415223 0.19531,-0.582031 0,-0.17006 -0.0955,-0.326534 -0.24023,-0.433594 -0.14179,-0.112224 -0.31058,-0.173828 -0.48633,-0.173828 h -1.13282 l -0.89453,1.169922 -2.06054,3.404296 v -8.132812 z m 0.31445,0.314453 h 1.72461 v 8.943359 l 2.63477,-4.351562 0.78906,-1.033203 h 0.97852 c 0.10736,0 0.19835,0.03173 0.29297,0.107422 l 0.002,0.002 0.004,0.002 c 0.0911,0.0668 0.11328,0.115466 0.11328,0.181641 0,0.05453 -0.0463,0.217428 -0.16016,0.4375 -0.1164,0.225047 -0.27045,0.494383 -0.45898,0.808593 v 0.002 0.002 c -0.18106,0.314871 -0.38277,0.652958 -0.60352,1.015625 -0.22087,0.354973 -0.43353,0.699871 -0.63867,1.03125 -0.20526,0.323685 -0.38685,0.612314 -0.54492,0.865234 -0.15778,0.252455 -0.26908,0.426076 -0.33008,0.517578 l -0.0566,0.08398 3.4414,5.59375 c 0.0602,0.106965 0.0859,0.20573 0.0859,0.302735 0,0.07666 -0.0208,0.121479 -0.0859,0.175781 l -0.002,0.002 -0.002,0.002 c -0.0571,0.05194 -0.123,0.07813 -0.22656,0.07813 h -1.21094 l -0.55469,-0.794922 -2.47852,-4.107421 -0.98828,1.623046 v 3.230469 h -1.72461 z"
             id="path2318" />
        </g>
        <g
           id="path2287">
          <path
             style="color:#000000;-inkscape-font-specification:Uroob;stroke:none;-inkscape-stroke:none"
             d="m 177.36138,20.69343 q 0.53358,-0.830009 1.41102,-0.830009 h 2.25288 q 1.03158,0 1.77859,0.699579 0.74701,0.69958 0.74701,1.74302 v 9.106388 h -2.0276 V 22.69731 q 0,-0.450577 -0.26086,-0.758866 -0.249,-0.320146 -0.73515,-0.320146 h -1.61259 q -0.59286,0 -0.77072,0.818152 -0.0474,0.213431 -0.0474,0.39129 v 8.584668 h -2.03945 v -8.904815 q 0,-0.592863 -0.62844,-0.830009 -0.17786,-0.07114 -0.35571,-0.05929 h -1.73117 q -0.71143,0 -0.71143,1.671876 v 8.122234 h -2.03945 V 19.863421 h 1.81416 v 0.711437 q 0.52172,-0.711437 1.26873,-0.711437 h 2.13431 q 0.99601,0 1.5533,0.830009 z"
             id="path2322" />
          <path
             style="color:#000000;-inkscape-font-specification:Uroob;fill:#b3b3b3;stroke:none;-inkscape-stroke:none"
             d="m 170.43359,19.707031 v 11.863281 h 2.35352 v -8.279296 c 0,-0.546143 0.0622,-0.949456 0.16601,-1.19336 0.10379,-0.243903 0.2131,-0.322265 0.38868,-0.322265 h 1.73632 0.006 c 0.0943,-0.0063 0.18811,0.0092 0.28711,0.04883 h 0.002 c 0.37847,0.14282 0.52734,0.343894 0.52734,0.683593 v 9.0625 h 2.35352 v -8.742187 c 0,-0.104608 0.0134,-0.224156 0.043,-0.357422 0.0554,-0.255003 0.14133,-0.433943 0.24219,-0.541016 0.10087,-0.107072 0.21354,-0.154296 0.375,-0.154296 h 1.61328 c 0.2896,0 0.47577,0.08547 0.61133,0.259765 l 0.002,0.002 0.002,0.002 c 0.14951,0.176699 0.22265,0.388155 0.22265,0.658204 v 8.873046 h 2.34375 v -9.263671 c 0,-0.733139 -0.2704,-1.364383 -0.79687,-1.857422 -0.52436,-0.491063 -1.16347,-0.742188 -1.88672,-0.742188 h -2.25391 c -0.5671,0 -1.01315,0.334456 -1.3789,0.806641 -0.3919,-0.513061 -0.92488,-0.806641 -1.58399,-0.806641 h -2.13476 c -0.43605,0 -0.7834,0.293094 -1.11133,0.617188 v -0.617188 z m 0.31446,0.314453 h 1.5 v 1.033203 l 0.2832,-0.386718 c 0.32666,-0.44544 0.69447,-0.646485 1.14258,-0.646485 h 2.13476 c 0.5837,0 0.99888,0.258443 1.33789,0.714844 l -0.0723,0.115234 h 0.28711 0.29492 l -0.0801,-0.121093 c 0.32217,-0.453066 0.69433,-0.708985 1.19531,-0.708985 h 2.25391 c 0.65219,0 1.20022,0.214542 1.67188,0.65625 0.46954,0.439733 0.69726,0.970793 0.69726,1.628907 v 8.949218 h -1.71484 v -8.558593 c 0,-0.329149 -0.0985,-0.623606 -0.29492,-0.857422 -0.19649,-0.251193 -0.4998,-0.378907 -0.85743,-0.378907 H 178.914 c -0.23377,0 -0.44747,0.08826 -0.60351,0.253907 -0.15604,0.165644 -0.25718,0.397069 -0.32032,0.6875 -0.0336,0.151309 -0.0508,0.293244 -0.0508,0.425781 v 8.427734 h -1.72461 v -8.748047 c 0,-0.450783 -0.27102,-0.803188 -0.73047,-0.976562 -0.13757,-0.05473 -0.27966,-0.07979 -0.42187,-0.07031 h -1.7207 c -0.29871,0 -0.54438,0.200285 -0.67774,0.513672 -0.13335,0.313388 -0.1914,0.747967 -0.1914,1.316407 v 7.964843 h -1.72461 z"
             id="path2324" />
        </g>
        <g
           id="path2289">
          <path
             style="color:#000000;-inkscape-font-specification:Uroob;stroke:none;-inkscape-stroke:none"
             d="m 192.40826,28.768235 q -0.0356,1.790449 -1.3873,2.442599 -0.45057,0.213431 -1.03158,0.213431 h -2.81018 q -1.05529,0 -1.74302,-0.758866 -0.69957,-0.758865 -0.69957,-1.82602 v -6.474073 q 0,-1.055297 0.64029,-1.814163 0.64029,-0.758866 1.68373,-0.758866 h 3.01175 q 1.0553,0 1.68373,0.806295 0.62844,0.806295 0.62844,1.885307 v 1.541446 q 0,1.04344 -0.58101,1.790448 -0.581,0.735152 -1.61259,0.735152 h -3.46232 v 2.146166 q 0,0.948583 0.96044,0.948583 h 1.8023 q 0.40315,0 0.6403,-0.225289 0.249,-0.237145 0.23714,-0.65215 z m -4.71919,-7.13808 q -0.96044,0 -0.96044,0.996011 v 2.169882 h 2.59674 q 0.45058,0 0.75887,-0.249003 0.32014,-0.26086 0.32014,-0.747008 v -1.2213 q 0,-0.498005 -0.32014,-0.723294 -0.30829,-0.225288 -0.75887,-0.225288 z"
             id="path2328" />
          <path
             style="color:#000000;-inkscape-font-specification:Uroob;fill:#b3b3b3;stroke:none;-inkscape-stroke:none"
             d="m 187.06055,19.634766 c -0.73374,0 -1.35069,0.276377 -1.80469,0.814453 -0.45002,0.533358 -0.67578,1.180693 -0.67578,1.916015 v 6.47461 c 0,0.745785 0.24896,1.398732 0.74023,1.93164 0.48535,0.535555 1.11817,0.810547 1.85938,0.810547 h 2.81054 c 0.40659,0 0.77366,-0.07504 1.09766,-0.228515 l 0.002,-0.002 c 0.95136,-0.458996 1.4501,-1.347291 1.47461,-2.580078 l 0.004,-0.160156 h -0.16016 -2.20117 l 0.004,0.162109 c 0.007,0.244416 -0.0556,0.407549 -0.1875,0.533204 -0.12585,0.119557 -0.29177,0.18164 -0.53125,0.18164 h -1.80274 c -0.29427,0 -0.48658,-0.07013 -0.60937,-0.191406 -0.1228,-0.12128 -0.19336,-0.309942 -0.19336,-0.599609 v -1.988282 h 3.30469 c 0.72506,0 1.32093,-0.269313 1.73632,-0.794922 v -0.002 c 0.40912,-0.526002 0.61329,-1.161916 0.61329,-1.886718 v -1.541016 c 0,-0.749858 -0.2203,-1.418076 -0.66016,-1.982422 -0.44518,-0.571179 -1.06503,-0.867187 -1.80859,-0.867187 z m 0,0.314453 h 3.01172 c 0.66349,0 1.16782,0.242214 1.56054,0.746093 0.39806,0.510714 0.59375,1.10024 0.59375,1.789063 v 1.541016 c 0,0.666449 -0.18131,1.223352 -0.54687,1.693359 -0.35927,0.454593 -0.8379,0.675781 -1.48828,0.675781 h -3.61914 v 2.302735 c 0,0.34272 0.0878,0.627351 0.28515,0.822265 0.19735,0.194915 0.48601,0.283203 0.83203,0.283203 h 1.80274 c 0.29805,0 0.5577,-0.08675 0.74804,-0.267578 0.15798,-0.15045 0.19714,-0.379531 0.22461,-0.609375 h 1.75 c -0.0642,1.046291 -0.4584,1.755006 -1.26172,2.142578 -0.27675,0.131097 -0.59479,0.199219 -0.96289,0.199219 h -2.81054 c -0.66585,0 -1.19534,-0.230766 -1.62696,-0.707031 v -0.002 h -0.002 c -0.44149,-0.478911 -0.65625,-1.041664 -0.65625,-1.71875 v -6.47461 c 0,-0.671738 0.19786,-1.234428 0.60156,-1.71289 0.39972,-0.473744 0.90694,-0.703125 1.56446,-0.703125 z m 0.6289,1.523437 c -0.34731,0 -0.63756,0.09318 -0.83398,0.296875 -0.19642,0.203695 -0.2832,0.500155 -0.2832,0.857422 v 2.326172 h 2.7539 c 0.32934,0 0.62278,-0.09368 0.85742,-0.283203 v -0.002 c 0.2505,-0.204113 0.37891,-0.508584 0.37891,-0.867188 v -1.222656 c 0,-0.365687 -0.13066,-0.669997 -0.38867,-0.851563 -0.23438,-0.170039 -0.52265,-0.253906 -0.84766,-0.253906 z m 0,0.314453 h 1.63672 c 0.27419,0 0.48995,0.06665 0.66602,0.195313 l 0.002,0.002 c 0.16885,0.11882 0.25391,0.295431 0.25391,0.59375 v 1.222656 c 0,0.288501 -0.0867,0.479527 -0.26172,0.623047 -4.7e-4,3.81e-4 -0.001,-3.8e-4 -0.002,0 -0.17612,0.141722 -0.38749,0.214844 -0.6582,0.214844 h -2.43945 V 22.627 c 0,-0.30674 0.0716,-0.510364 0.19531,-0.638672 0.12373,-0.128308 0.31445,-0.201172 0.60742,-0.201172 z"
             id="path2330" />
        </g>
        <g
           id="path2291">
          <path
             style="color:#000000;-inkscape-font-specification:Uroob;stroke:none;-inkscape-stroke:none"
             d="m 195.71644,31.424265 q -2.30031,0 -2.30031,-2.00388 v -11.4897 h 2.14617 V 28.79195 q 0,0.711436 0.46243,0.865581 0.21343,0.07114 0.49801,0.05929 0.29643,-0.01186 0.64029,-0.01186 v 1.719305 z"
             id="path2334" />
          <path
             style="color:#000000;-inkscape-font-specification:Uroob;fill:#b3b3b3;stroke:none;-inkscape-stroke:none"
             d="m 193.25977,17.773437 v 11.646485 c 0,0.698034 0.20638,1.253021 0.6289,1.621094 0.42252,0.368072 1.03853,0.541015 1.82813,0.541015 h 1.60351 v -2.035156 h -0.1582 c -0.23105,0 -0.44644,0.0057 -0.64649,0.01367 -0.17502,0.0073 -0.32148,-0.01276 -0.4414,-0.05273 -0.11973,-0.03991 -0.19761,-0.106061 -0.25781,-0.21875 -0.0602,-0.112688 -0.0977,-0.27793 -0.0977,-0.498046 V 17.773437 Z m 0.31445,0.314454 h 1.83008 v 10.703125 c 0,0.254174 0.0408,0.470645 0.13476,0.646484 0.0939,0.175839 0.24699,0.306288 0.43555,0.369141 0.16465,0.05488 0.35027,0.07492 0.55469,0.06641 0.147,-0.0059 0.31125,-0.0083 0.47656,-0.0098 v 1.404297 h -1.28906 c -0.74395,0 -1.2788,-0.163004 -1.62305,-0.462891 -0.34425,-0.299886 -0.51953,-0.74688 -0.51953,-1.384765 z"
             id="path2336" />
        </g>
        <g
           id="path2293">
          <path
             style="color:#000000;-inkscape-font-specification:Uroob;stroke:none;-inkscape-stroke:none"
             d="m 202.71224,19.851564 q 0.71143,0 1.3043,0.355718 v -3.877329 h 2.03945 v 15.035026 h -1.86159 v -0.557292 q -0.77073,0.557292 -1.71931,0.557292 h -0.83001 q -1.51773,0 -2.40703,-0.984154 -0.90115,-0.984154 -0.90115,-2.513743 v -4.505765 q 0,-2.490028 1.67188,-3.248893 0.581,-0.26086 1.39916,-0.26086 z m 1.3043,8.892957 v -6.319928 q 0,-0.343861 -0.32015,-0.581007 -0.32015,-0.237145 -0.65215,-0.237145 h -1.25687 q -1.2213,0 -1.37545,1.162013 -0.0474,0.355718 -0.0474,0.747008 v 4.316048 q 0.0119,0.924868 0.20157,1.2213 0.36758,0.569149 1.2213,0.569149 h 1.01972 q 0.65215,0 1.07902,-0.52172 0.13043,-0.166002 0.13043,-0.355718 z"
             id="path2340" />
          <path
             style="color:#000000;-inkscape-font-specification:Uroob;fill:#b3b3b3;stroke:none;-inkscape-stroke:none"
             d="m 203.85937,16.171875 v 3.835937 c -0.35995,-0.172602 -0.73208,-0.3125 -1.14648,-0.3125 h -1.30469 c -0.56214,0 -1.0504,0.08824 -1.46289,0.273438 h -0.002 c -1.17351,0.532654 -1.76367,1.69738 -1.76367,3.392578 v 4.505859 c 0,1.050595 0.3152,1.933124 0.94336,2.619141 0.62259,0.688294 1.47631,1.035156 2.52148,1.035156 h 0.83008 c 0.57178,0 1.08151,-0.215745 1.5625,-0.505859 v 0.505859 h 2.17578 V 16.171875 Z m 0.31446,0.314453 h 1.72461 v 14.720703 h -1.54688 V 30.5 l -0.25,0.179687 c -0.489,0.353586 -1.02535,0.527344 -1.62695,0.527344 h -0.83008 c -0.97784,0 -1.72602,-0.308544 -2.28906,-0.93164 h -0.002 c -0.57338,-0.626187 -0.85938,-1.419349 -0.85938,-2.408204 v -4.505859 c 0,-1.62413 0.52338,-2.626058 1.57813,-3.105469 0.36218,-0.162613 0.8072,-0.248046 1.33593,-0.248047 h 1.30469 c 0.44809,0 0.8512,0.111111 1.22266,0.333985 l 0.23828,0.142578 z m -2.38672,4.962891 c -0.43203,0 -0.79236,0.104853 -1.05664,0.328125 -0.26428,0.223272 -0.41967,0.556541 -0.47461,0.970703 -0.0326,0.244625 -0.0488,0.500371 -0.0488,0.767578 v 4.316406 0.002 c 0.008,0.627105 0.0609,1.043855 0.22656,1.302735 v 0.002 c 0.27515,0.426023 0.74944,0.640625 1.35352,0.640625 h 1.01953 c 0.47669,0 0.89175,-0.201901 1.20117,-0.580078 l 0.002,-0.002 c 0.10492,-0.133543 0.16406,-0.290625 0.16406,-0.453125 v -0.15625 -6.164063 c 0,-0.278025 -0.14213,-0.527304 -0.38477,-0.707031 -0.23431,-0.173566 -0.48538,-0.267578 -0.74414,-0.267578 z m 0,0.314453 h 1.25781 c 0.18391,0 0.36605,0.0644 0.5586,0.207031 0.18423,0.136467 0.25585,0.27267 0.25585,0.453125 v 6.320313 c 0,0.08904 -0.0291,0.169665 -0.0957,0.255859 -0.25973,0.317449 -0.56418,0.464844 -0.95703,0.464844 h -1.01953 c -0.53306,0 -0.87285,-0.164697 -1.08789,-0.496094 v -0.002 c -0.0869,-0.136773 -0.16972,-0.531445 -0.17774,-1.134766 v -4.316406 c 0,-0.254512 0.0163,-0.496898 0.0469,-0.726563 0.0478,-0.360512 0.17103,-0.607419 0.36523,-0.771484 0.1942,-0.164065 0.47135,-0.253906 0.85352,-0.253906 z"
             id="path2342" />
        </g>
      </g>
      <g
         id="g2275"
         style="stroke:#b3b3b3">
        <path
           style="font-variation-settings:normal;fill:#00aa00;fill-opacity:1;stroke:#b3b3b3;stroke-width:0.405999;stroke-linecap:butt;stroke-linejoin:miter;stroke-miterlimit:4;stroke-dasharray:none;stroke-dashoffset:0;stroke-opacity:1;marker:none;paint-order:fill markers stroke;stop-color:#000000"
           d="m 123.06783,31.493987 c 0.0891,-0.07216 0.22974,-0.189265 0.31239,-0.260239 0.22322,-0.191672 0.81642,-0.790212 1.00216,-1.011182 0.88751,-1.055848 1.395,-2.163865 1.55361,-3.392049 0.0362,-0.28004 0.0437,-0.949064 0.0141,-1.259496 -0.0766,-0.804199 -0.29284,-1.565419 -0.63831,-2.247053 -0.19357,-0.381937 -0.39829,-0.667866 -0.70065,-0.978587 -0.63593,-0.65351 -1.4191,-1.052336 -2.27971,-1.160937 -0.20866,-0.02633 -0.64298,-0.03041 -0.81894,-0.0077 -0.84087,0.108581 -1.48945,0.486566 -1.91184,1.114199 -0.44579,0.662398 -0.47343,1.354081 -0.075,1.87703 0.0444,0.05829 0.0683,0.100613 0.0568,0.100613 -0.0373,0 -0.21681,-0.09915 -0.29065,-0.160522 -0.19888,-0.165269 -0.38555,-0.487873 -0.4748,-0.820513 -0.20031,-0.746586 0.003,-1.586138 0.5443,-2.250147 0.94305,-1.15637 2.97655,-1.777582 4.78464,-1.461666 1.02125,0.178437 2.06756,0.597992 2.9412,1.179383 0.3001,0.199702 0.53991,0.395196 0.87664,0.714628 l 0.28267,0.268143 v 4.943645 4.943644 h -2.67037 -2.67037 z"
           id="path2271"
           inkscape:connector-curvature="0" />
        <path
           style="font-variation-settings:normal;opacity:1;fill:#00aa00;fill-opacity:1;stroke:#b3b3b3;stroke-width:0.405999;stroke-linecap:butt;stroke-linejoin:miter;stroke-miterlimit:4;stroke-dasharray:none;stroke-dashoffset:0;stroke-opacity:1;marker:none;paint-order:fill markers stroke;stop-color:#000000;stop-opacity:1"
           d="m 117.92174,28.733696 c -1.35058,-0.09888 -2.90275,-0.712551 -3.96651,-1.56822 -0.0917,-0.07369 -0.29289,-0.253768 -0.44728,-0.400177 l -0.2807,-0.266199 v -4.943644 -4.943644 c 1.77469,0.0045 3.5497,-0.0076 5.32424,0.0054 -0.72235,0.626105 -1.49741,1.373263 -1.98496,2.091551 -0.56141,0.839436 -0.89362,1.702758 -1.02435,2.661931 -0.0429,0.314554 -0.0464,1.131241 -0.006,1.452713 0.11507,0.921021 0.40789,1.774752 0.86543,2.523384 0.29506,0.482758 0.97002,1.062932 1.58455,1.362025 0.49806,0.2424 0.94121,0.348373 1.51011,0.36112 0.4544,0.0102 0.74761,-0.03197 1.11491,-0.160314 0.37916,-0.132477 0.70605,-0.340216 0.98327,-0.62486 0.68446,-0.702792 0.82712,-1.594503 0.35437,-2.215014 -0.0447,-0.05866 -0.0688,-0.101349 -0.0575,-0.101349 0.0373,0 0.21685,0.09918 0.29055,0.160523 0.23457,0.195227 0.43154,0.574428 0.51534,0.992148 0.0404,0.201253 0.0367,0.647297 -0.006,0.865384 -0.0864,0.429926 -0.28514,0.848644 -0.5706,1.202246 -0.12191,0.150922 -0.41505,0.431382 -0.58198,0.556695 -0.38394,0.288198 -0.87016,0.534558 -1.38945,0.704004 -0.37947,0.123818 -0.83201,0.218458 -1.26015,0.263518 -0.25834,0.0272 -0.73765,0.0375 -0.96609,0.02078 z"
           id="path2273"
           inkscape:connector-curvature="0"
           sodipodi:nodetypes="scscccccscsssssssscccsssss" />
      </g>
    </g>
  </g>
</svg>
