<?xml version="1.0" encoding="UTF-8" standalone="no"?>
<!-- Created with Inkscape (http://www.inkscape.org/) -->

<svg
   width="32mm"
   height="17mm"
   viewBox="0 0 32 17"
   version="1.1"
   id="svg5"
   inkscape:version="1.2 (1:1.2.1+202207142221+cd75a1ee6d)"
   sodipodi:docname="markmeld_logo_dark.svg"
   xmlns:inkscape="http://www.inkscape.org/namespaces/inkscape"
   xmlns:sodipodi="http://sodipodi.sourceforge.net/DTD/sodipodi-0.dtd"
   xmlns="http://www.w3.org/2000/svg"
   xmlns:svg="http://www.w3.org/2000/svg">
  <sodipodi:namedview
     id="namedview7"
     pagecolor="#191919"
     bordercolor="#666666"
     borderopacity="1.0"
     inkscape:pageshadow="2"
     inkscape:pageopacity="0"
     inkscape:pagecheckerboard="0"
     inkscape:document-units="mm"
     showgrid="false"
     inkscape:zoom="7.7518095"
     inkscape:cx="46.569772"
     inkscape:cy="38.829643"
     inkscape:window-width="2488"
     inkscape:window-height="1343"
     inkscape:window-x="1272"
     inkscape:window-y="231"
     inkscape:window-maximized="1"
     inkscape:current-layer="layer1"
     inkscape:snap-global="false"
     inkscape:showpageshadow="2"
     inkscape:deskcolor="#191919" />
  <defs
     id="defs2" />
  <g
     inkscape:label="Layer 1"
     inkscape:groupmode="layer"
     id="layer1"
     transform="translate(-59.77698,-36.14967)">
    <g
       id="g1768"
       transform="matrix(1.7949691,0,0,1.7949691,-27.135218,-11.341666)" />
    <g
       id="g2183"
       transform="matrix(0.50253073,0,0,0.50253073,5.2216647,57.005256)">
      <g
         aria-label="markmeld"
         transform="scale(0.99254066,1.0075154)"
         id="text2171"
         style="font-size:19.3547px;font-family:Uroob;-inkscape-font-specification:Uroob;letter-spacing:0px;word-spacing:0px;fill:#00aa00;stroke:#b3b3b3;stroke-width:0.446647;paint-order:fill markers stroke">
        <g
           id="path2202">
          <path
             style="color:#000000;-inkscape-font-specification:Uroob;stroke:none;-inkscape-stroke:none"
             d="m 117.31361,-17.911992 q 0.42527,-0.661538 1.12461,-0.661538 h 1.7956 q 0.8222,0 1.41758,0.557582 0.59539,0.557582 0.59539,1.389229 v 7.2580127 h -1.61604 v -6.9461447 q 0,-0.359121 -0.20792,-0.604835 -0.19846,-0.255164 -0.58593,-0.255164 h -1.28527 q -0.47253,0 -0.61429,0.652087 -0.0378,0.17011 -0.0378,0.311868 v 6.8421887 h -1.62549 V -16.46606 q 0,-0.472527 -0.50088,-0.661537 -0.14176,-0.0567 -0.28352,-0.04725 h -1.37977 q -0.56704,0 -0.56704,1.332526 v 6.4736177 h -1.62549 V -18.57353 h 1.44593 v 0.567033 q 0.41583,-0.567033 1.01121,-0.567033 h 1.7011 q 0.79384,0 1.23802,0.661538 z"
             id="path2221" />
          <path
             style="color:#000000;-inkscape-font-specification:Uroob;fill:#b3b3b3;stroke:none;-inkscape-stroke:none"
             d="m 111.69336,-18.796875 v 9.6523437 h 2.07227 v -6.6972657 c 0,-0.428336 0.0515,-0.73938 0.125,-0.912109 0.0735,-0.172729 0.1172,-0.197266 0.21875,-0.197266 h 1.38867 0.006 c 0.06,-0.004 0.11884,0.0046 0.18554,0.03125 h 0.002 l 0.002,0.002 c 0.2764,0.104303 0.35742,0.215062 0.35742,0.451172 v 7.3222657 h 2.07227 V -16.21089 c 0,-0.07466 0.0108,-0.163089 0.0332,-0.263672 0.0418,-0.192196 0.10478,-0.317691 0.16797,-0.384766 0.0632,-0.06707 0.12042,-0.0918 0.22656,-0.0918 h 1.28516 c 0.20929,0 0.32109,0.05346 0.41015,0.167969 l 0.004,0.0039 0.002,0.0039 c 0.10396,0.122855 0.15625,0.264623 0.15625,0.460938 v 7.1699217 h 2.0625 v -7.4824217 c 0,-0.607725 -0.22865,-1.143147 -0.66601,-1.552734 -0.43436,-0.406781 -0.9717,-0.617188 -1.57031,-0.617188 h -1.79688 c -0.46241,0 -0.82642,0.289333 -1.13086,0.658203 -0.3246,-0.373201 -0.71868,-0.658203 -1.23047,-0.658203 H 114.375 c -0.30977,0 -0.54119,0.243008 -0.78906,0.435547 v -0.435547 z m 0.44727,0.447266 h 1 v 1.02539 l 0.40234,-0.550781 c 0.24716,-0.337034 0.50601,-0.474609 0.83203,-0.474609 h 1.70117 c 0.46719,0 0.79094,0.172592 1.05274,0.5625 l 0.18945,0.28125 0.18359,-0.285157 c 0.25341,-0.394185 0.53974,-0.558593 0.93555,-0.558593 h 1.79688 c 0.49764,0 0.90418,0.159432 1.26367,0.496093 0.35649,0.333855 0.52539,0.725426 0.52539,1.226563 v 7.0351561 h -1.16992 v -6.7226561 c 0,-0.280315 -0.0872,-0.540092 -0.25782,-0.744141 -0.1757,-0.223386 -0.45403,-0.339844 -0.75976,-0.339843 h -1.28516 c -0.20887,0 -0.4092,0.08409 -0.55078,0.234375 -0.14158,0.150287 -0.22853,0.351221 -0.28125,0.59375 -0.028,0.126229 -0.043,0.245019 -0.043,0.359375 v 6.6191401 h -1.17773 v -6.8750001 c 0,-0.392932 -0.25478,-0.718939 -0.64453,-0.867187 -0.12178,-0.04841 -0.25054,-0.07301 -0.37891,-0.06445 h -1.36523 c -0.27649,0 -0.51535,0.197304 -0.63086,0.46875 -0.11551,0.271445 -0.15821,0.627876 -0.15821,1.08789 v 6.2500001 h -1.17968 z"
             id="path2223" />
        </g>
        <g
           id="path2204">
          <path
             style="color:#000000;-inkscape-font-specification:Uroob;stroke:none;-inkscape-stroke:none"
             d="m 128.03052,-16.371554 q 0,-0.793845 -0.7655,-0.793845 h -1.71999 q -0.28352,0 -0.44418,0.17956 -0.15121,0.170109 -0.16066,0.444175 h -1.62549 q 0.0189,-0.859999 0.55758,-1.455383 0.53868,-0.595384 1.37033,-0.595384 h 2.52329 q 0.81275,0 1.33253,0.585934 0.51978,0.585933 0.51978,1.427031 v 7.2202102 h -1.57824 v -0.3685709 q -0.51033,0.3969225 -1.00176,0.3969225 h -1.54989 q -0.86,0 -1.55934,-0.5575817 -0.69934,-0.5575821 -0.69934,-1.3703281 v -1.795602 q 0,-0.831647 0.69934,-1.389229 0.69934,-0.557581 1.55934,-0.557581 h 1.83341 q 0.37802,0 0.70879,0.207911 z m -0.0284,4.800873 v -1.171867 q 0,-0.359121 -0.20791,-0.604834 -0.19846,-0.255165 -0.58593,-0.255165 h -1.60659 q -0.39692,0 -0.57648,0.255165 -0.17956,0.245713 -0.17956,0.604834 v 1.171867 q 0,0.35912 0.17956,0.614284 0.17956,0.245714 0.57648,0.245714 h 1.60659 q 0.38747,0 0.58593,-0.245714 0.20791,-0.255164 0.20791,-0.614284 z"
             id="path2227" />
          <path
             style="color:#000000;-inkscape-font-specification:Uroob;fill:#b3b3b3;stroke:none;-inkscape-stroke:none"
             d="m 125.24219,-18.816406 c -0.60773,0 -1.13768,0.230601 -1.53516,0.669922 -0.39414,0.435627 -0.60163,0.980815 -0.61523,1.599609 l -0.006,0.228516 h 2.07031 l 0.008,-0.214844 c 0.005,-0.143303 0.0407,-0.234066 0.10352,-0.304688 0.0636,-0.07106 0.13547,-0.103515 0.27734,-0.103515 h 1.72071 c 0.21656,0 0.33616,0.05015 0.4121,0.128906 0.076,0.07876 0.12891,0.212683 0.12891,0.441406 v 1.289063 c -0.16055,-0.05573 -0.31256,-0.142578 -0.48437,-0.142578 h -1.83399 c -0.6216,0 -1.1981,0.205931 -1.69922,0.605468 -0.50854,0.405461 -0.7832,0.947424 -0.7832,1.564453 v 1.794922 c 0,0.605884 0.27562,1.140229 0.7832,1.5449222 0.50112,0.3995381 1.07762,0.6074219 1.69922,0.6074219 h 1.55078 c 0.26471,0 0.52029,-0.1650129 0.77735,-0.3027344 v 0.2734375 h 2.02539 v -7.4433592 c 0,-0.606735 -0.19445,-1.143913 -0.57618,-1.574219 -0.38486,-0.433849 -0.9045,-0.662109 -1.49999,-0.662109 z m 0,0.447265 h 2.52344 c 0.48816,0 0.85784,0.164324 1.16601,0.511719 0.31132,0.350938 0.46289,0.762615 0.46289,1.277344 v 6.9980467 h -1.13086 v -0.6015627 l -0.36133,0.2792971 c -0.31279,0.243287 -0.59578,0.3496094 -0.86328,0.3496094 h -1.55078 c -0.52507,0 -0.98858,-0.163909 -1.41992,-0.5078125 -0.42487,-0.338749 -0.61523,-0.719489 -0.61523,-1.197266 v -1.794922 c -1e-5,-0.491832 0.19132,-0.876862 0.61523,-1.214843 0.43134,-0.343903 0.89485,-0.507813 1.41992,-0.507813 h 1.83399 c 0.21107,0 0.40178,0.05562 0.58984,0.173828 l 0.3418,0.214844 v -1.982422 c 0,-0.300506 -0.0747,-0.564142 -0.25391,-0.75 -0.17922,-0.185857 -0.44061,-0.267578 -0.73437,-0.267578 h -1.72071 c -0.23616,0 -0.46069,0.08555 -0.61133,0.253906 -0.0875,0.09841 -0.10214,0.23945 -0.13671,0.369141 H 123.625 c 0.0537,-0.406847 0.14458,-0.786339 0.41211,-1.082031 0.32076,-0.354524 0.70394,-0.521485 1.20508,-0.521485 z m 0.35937,4.542969 c -0.31084,0 -0.59121,0.116644 -0.75586,0.347656 -0.15028,0.205655 -0.22265,0.459694 -0.22265,0.736328 v 1.171875 c 0,0.276634 0.0707,0.531754 0.21875,0.742188 l 0.002,0.002 0.002,0.002 c 0.16596,0.2271 0.44517,0.335938 0.75586,0.335938 h 1.60742 c 0.30458,0 0.5808,-0.108453 0.75782,-0.326172 l 0.002,-0.002 c 0.16996,-0.209559 0.25586,-0.472273 0.25586,-0.753907 v -1.171875 c 0,-0.280312 -0.0872,-0.540091 -0.25781,-0.74414 -0.17571,-0.223382 -0.45209,-0.339844 -0.75782,-0.339844 z m 0,0.447266 h 1.60742 c 0.20929,0 0.31914,0.05346 0.40821,0.167968 l 0.004,0.0039 0.002,0.0039 c 0.10395,0.122853 0.15625,0.264621 0.15625,0.460937 v 1.171875 c 0,0.196316 -0.052,0.342321 -0.15821,0.472657 -0.0877,0.108542 -0.201,0.164062 -0.41211,0.164062 h -1.60742 c -0.21853,0 -0.32303,-0.05378 -0.39648,-0.154297 -0.0898,-0.129088 -0.13672,-0.281945 -0.13672,-0.482422 v -1.171875 c 0,-0.202193 0.0476,-0.350694 0.13672,-0.472656 l 0.002,-0.002 v -0.002 c 0.0751,-0.106774 0.17777,-0.160156 0.39453,-0.160156 z"
             id="path2229" />
        </g>
        <g
           id="path2206">
          <path
             style="color:#000000;-inkscape-font-specification:Uroob;stroke:none;-inkscape-stroke:none"
             d="m 134.816,-17.17485 -0.9545,-0.0095 q -1.19077,0 -1.54989,0.859999 -0.12286,0.292967 -0.12286,0.670988 v 6.2846077 h -1.61604 l -0.009,-8.3731757 q -0.41582,0 -0.41582,-0.311868 v -0.548131 h 1.86175 v 0.859999 q 0.13231,-0.378022 0.48198,-0.623736 0.34967,-0.245714 0.74659,-0.245714 h 1.57824 z"
             id="path2233" />
          <path
             style="color:#000000;-inkscape-font-specification:Uroob;fill:#b3b3b3;stroke:none;-inkscape-stroke:none"
             d="m 133.23828,-18.833984 c -0.31069,0 -0.60936,0.09849 -0.875,0.285156 -0.0618,0.04341 -0.0771,0.119978 -0.13086,0.169922 v -0.447266 h -2.30859 v 0.771485 c 0,0.153582 0.0669,0.319206 0.19336,0.414062 0.063,0.04724 0.14816,0.04173 0.22265,0.06055 l 0.01,8.4355467 h 2.0625 v -6.5097657 c 0,-0.22782 0.0368,-0.420264 0.10547,-0.583984 0.20537,-0.491813 0.60324,-0.722162 1.34179,-0.722656 l 1.17969,0.01172 v -0.224609 -1.660156 z m 0,0.445312 h 1.35547 l -0.002,0.988281 -0.72852,-0.0078 h -0.002 c -0.84761,0 -1.48263,0.343724 -1.75586,0.998047 -0.0952,0.226902 -0.14063,0.479651 -0.14063,0.755859 v 6.0625001 h -1.16992 l -0.008,-8.3730471 h -0.22266 c -0.11069,0 -0.1656,-0.0241 -0.17773,-0.0332 -0.0121,-0.0091 -0.0156,-0.0023 -0.0156,-0.05664 v -0.324219 h 1.41602 v 0.636719 l 0.43359,0.07422 c 0.0729,-0.208355 0.19857,-0.375172 0.39844,-0.515625 0.20059,-0.140955 0.40061,-0.205078 0.61914,-0.205078 z"
             id="path2235" />
        </g>
        <g
           id="path2208">
          <path
             style="color:#000000;-inkscape-font-specification:Uroob;stroke:none;-inkscape-stroke:none"
             d="m 141.76215,-10.001892 q 0.085,0.1512083 0.085,0.3024169 0,0.141758 -0.1134,0.2362634 -0.10396,0.094505 -0.26462,0.094505 h -1.03011 l -0.48198,-0.6898893 -1.8712,-3.099776 -0.66154,1.086812 v 2.6650511 h -1.62549 V -21.38979 h 1.62549 v 6.804387 l 1.87121,-3.090325 0.67099,-0.8789 h 0.84109 q 0.17011,0 0.31187,0.113406 0.14176,0.103956 0.14176,0.245714 0,0.132307 -0.14176,0.406373 -0.14176,0.274066 -0.36857,0.652087 -0.21736,0.378022 -0.48198,0.812746 -0.26461,0.425274 -0.51033,0.822197 -0.24571,0.387472 -0.43472,0.689889 -0.18901,0.302417 -0.26462,0.415824 z"
             id="path2239" />
          <path
             style="color:#000000;-inkscape-font-specification:Uroob;fill:#b3b3b3;stroke:none;-inkscape-stroke:none"
             d="m 135.57617,-21.613281 v 12.4296872 h 2.07227 v -2.8261722 l 0.4375,-0.716797 1.68359,2.789063 0.55274,0.7929687 h 1.14648 c 0.1488,0 0.29893,-0.053621 0.41016,-0.1523437 0.11506,-0.098356 0.1914,-0.2503802 0.1914,-0.4023438 0,-0.1426517 -0.041,-0.2835852 -0.11328,-0.4121092 l -0.002,-0.0039 -0.002,-0.0039 -2.63085,-4.277343 c 0.0524,-0.08132 0.10189,-0.153652 0.1914,-0.296875 0.12568,-0.20108 0.26999,-0.431459 0.4336,-0.689454 l 0.002,-0.002 c 0.16372,-0.26446 0.33344,-0.538883 0.50976,-0.822265 v -0.002 c 0.17643,-0.289842 0.33892,-0.5596 0.48438,-0.8125 l 0.002,-0.0039 c 0.15171,-0.25299 0.27602,-0.474522 0.37305,-0.662109 0.10124,-0.195736 0.16601,-0.339848 0.16601,-0.507812 0,-0.167428 -0.0987,-0.323743 -0.23046,-0.421875 -0.12768,-0.100406 -0.28633,-0.160157 -0.44727,-0.160157 h -0.95117 l -0.74414,0.976563 -1.46289,2.414062 v -6.226562 z m 0.44531,0.447265 h 1.17969 v 7.38086 l 2.2793,-3.763672 0.5957,-0.783203 h 0.73047 c 0.0638,0 0.11335,0.01607 0.17383,0.06445 l 0.004,0.0039 0.004,0.002 c 0.0555,0.04068 0.0488,0.04634 0.0488,0.06641 0,0.0084 -0.0275,0.133049 -0.11524,0.302734 -0.0914,0.176757 -0.21376,0.391427 -0.36328,0.640625 v 0.002 l -0.002,0.002 c -0.14382,0.250134 -0.30293,0.520138 -0.47852,0.808594 -0.17596,0.282809 -0.34631,0.556278 -0.50976,0.820312 -0.16335,0.257596 -0.30767,0.487977 -0.43359,0.689453 -0.12557,0.200902 -0.2145,0.339322 -0.26172,0.410157 l -0.0781,0.11914 2.77344,4.509766 c 0.0402,0.072179 0.0547,0.1329982 0.0547,0.1914062 0,0.034956 2.1e-4,0.036607 -0.0332,0.064453 l -0.002,0.00391 -0.004,0.00195 c -0.0269,0.024487 -0.0519,0.037109 -0.11523,0.037109 h -0.91406 l -0.41016,-0.5878912 -2.05859,-3.410156 -0.88477,1.455078 v 2.5058598 h -1.17969 z"
             id="path2241" />
        </g>
        <g
           id="path2210">
          <path
             style="color:#000000;-inkscape-font-specification:Uroob;stroke:none;-inkscape-stroke:none"
             d="m 148.15071,-17.911992 q 0.42527,-0.661538 1.12461,-0.661538 h 1.79561 q 0.82219,0 1.41758,0.557582 0.59538,0.557582 0.59538,1.389229 v 7.2580127 h -1.61604 v -6.9461447 q 0,-0.359121 -0.20791,-0.604835 -0.19846,-0.255164 -0.58594,-0.255164 h -1.28527 q -0.47253,0 -0.61428,0.652087 -0.0378,0.17011 -0.0378,0.311868 v 6.8421887 h -1.62549 V -16.46606 q 0,-0.472527 -0.50088,-0.661537 -0.14176,-0.0567 -0.28351,-0.04725 h -1.37978 q -0.56703,0 -0.56703,1.332526 v 6.4736177 h -1.6255 V -18.57353 h 1.44594 v 0.567033 q 0.41582,-0.567033 1.0112,-0.567033 h 1.7011 q 0.79384,0 1.23802,0.661538 z"
             id="path2245" />
          <path
             style="color:#000000;-inkscape-font-specification:Uroob;fill:#b3b3b3;stroke:none;-inkscape-stroke:none"
             d="m 142.53125,-18.796875 v 9.6523437 h 2.07227 v -6.6972657 c 0,-0.428336 0.0495,-0.73938 0.12304,-0.912109 0.0735,-0.17273 0.11916,-0.197266 0.22071,-0.197266 h 1.38671 0.008 c 0.06,-0.004 0.11884,0.0046 0.18554,0.03125 h 0.002 l 0.002,0.002 c 0.2764,0.104303 0.35742,0.215062 0.35742,0.451172 v 7.3222657 h 2.07227 V -16.21089 c 0,-0.07466 0.009,-0.163089 0.0312,-0.263672 0.0418,-0.192196 0.10673,-0.317692 0.16992,-0.384766 0.0632,-0.06707 0.12042,-0.0918 0.22656,-0.0918 h 1.28516 c 0.2093,0 0.32109,0.05346 0.41015,0.167969 l 0.002,0.0039 0.004,0.0039 c 0.10396,0.122855 0.1543,0.264621 0.1543,0.460938 v 7.1699217 h 2.0625 v -7.4824217 c 0,-0.607724 -0.22866,-1.143147 -0.66602,-1.552734 -0.43436,-0.40678 -0.9717,-0.617188 -1.57031,-0.617188 h -1.79492 c -0.46241,0 -0.82642,0.289333 -1.13086,0.658203 -0.32462,-0.37332 -0.72054,-0.658203 -1.23242,-0.658203 h -1.70117 c -0.30918,0 -0.53957,0.243705 -0.78711,0.435547 v -0.435547 z m 0.44727,0.447266 h 0.99804 v 1.02539 l 0.4043,-0.550781 c 0.24715,-0.337033 0.50405,-0.474609 0.83008,-0.474609 h 1.70117 c 0.41417,0 0.68813,0.195568 0.93359,0.498047 l -0.10351,0.162109 h 0.4082 0.41992 l -0.11523,-0.171875 c 0.23016,-0.295449 0.47407,-0.488281 0.82031,-0.488281 h 1.79492 c 0.49765,0 0.90614,0.159431 1.26563,0.496093 0.35648,0.333855 0.52539,0.725425 0.52539,1.226563 v 7.0351561 h -1.16992 v -6.7226561 c 0,-0.280315 -0.0892,-0.540091 -0.25977,-0.744141 -0.17571,-0.223383 -0.45208,-0.339844 -0.75781,-0.339843 h -1.28516 c -0.20887,0 -0.41116,0.08409 -0.55273,0.234375 -0.14158,0.150288 -0.22658,0.351221 -0.2793,0.59375 -0.028,0.126229 -0.043,0.245019 -0.043,0.359375 v 6.6191401 h -1.17969 v -6.8750001 c 0,-0.392931 -0.25282,-0.718939 -0.64257,-0.867187 -0.12178,-0.04841 -0.25054,-0.07301 -0.37891,-0.06445 h -1.36523 c -0.27648,0 -0.51536,0.197304 -0.63086,0.46875 -0.11551,0.271445 -0.16016,0.627877 -0.16016,1.08789 v 6.2500001 h -1.17773 z"
             id="path2247" />
        </g>
        <g
           id="path2212">
          <path
             style="color:#000000;-inkscape-font-specification:Uroob;stroke:none;-inkscape-stroke:none"
             d="m 160.14344,-11.476176 q -0.0283,1.427031 -1.10571,1.9468105 -0.35912,0.1701097 -0.8222,0.1701097 h -2.23978 q -0.84109,0 -1.38922,-0.6048344 -0.55759,-0.6048348 -0.55759,-1.4553828 v -5.159993 q 0,-0.841098 0.51033,-1.445932 0.51033,-0.604835 1.34198,-0.604835 h 2.40044 q 0.84109,0 1.34197,0.642637 0.50088,0.642636 0.50088,1.502635 v 1.22857 q 0,0.831647 -0.46308,1.427031 -0.46307,0.585933 -1.28527,0.585933 h -2.75956 v 1.710548 q 0,0.756043 0.7655,0.756043 h 1.43648 q 0.32132,0 0.51033,-0.179561 0.19846,-0.18901 0.18901,-0.519779 z m -3.76131,-5.689223 q -0.7655,0 -0.7655,0.793845 v 1.729448 h 2.06967 q 0.35912,0 0.60484,-0.198461 0.25516,-0.207912 0.25516,-0.595384 v -0.973406 q 0,-0.396922 -0.25516,-0.576482 -0.24572,-0.17956 -0.60484,-0.17956 z"
             id="path2251" />
          <path
             style="color:#000000;-inkscape-font-specification:Uroob;fill:#b3b3b3;stroke:none;-inkscape-stroke:none"
             d="m 155.88086,-18.853516 c -0.60857,0 -1.13294,0.234674 -1.51172,0.683594 -0.37312,0.442218 -0.56445,0.983946 -0.56445,1.589844 v 5.160156 c 0,0.61518 0.21095,1.164129 0.61718,1.6054689 0.40359,0.4453389 0.94044,0.6777343 1.55469,0.6777343 h 2.23828 c 0.33607,0 0.645,-0.062102 0.91797,-0.1914062 h 0.002 c 0.78962,-0.38094 1.21245,-1.137546 1.23242,-2.144531 l 0.004,-0.226563 h -0.22851 -1.85352 l 0.006,0.228516 c 0.005,0.173822 -0.0361,0.27187 -0.11914,0.351562 -0.0805,0.07618 -0.18509,0.119141 -0.3577,0.119141 h -1.43555 c -0.2184,0 -0.34334,-0.0513 -0.41797,-0.125 -0.0746,-0.0737 -0.125,-0.193875 -0.125,-0.408203 v -1.486328 h 2.53711 c 0.60119,0 1.11041,-0.230808 1.45899,-0.671875 h 0.002 c 0.33966,-0.436699 0.50977,-0.968572 0.50977,-1.564453 v -1.228516 c 0,-0.616688 -0.18522,-1.174104 -0.54883,-1.640625 -0.37118,-0.476229 -0.89998,-0.728516 -1.51758,-0.728516 z m 0,0.447266 h 2.40039 c 0.50385,0 0.86936,0.176021 1.16602,0.556641 0.30422,0.390326 0.45312,0.835258 0.45312,1.365234 v 1.228516 c 0,0.512276 -0.139,0.930281 -0.41602,1.287109 -3.8e-4,4.9e-4 3.9e-4,0.0015 0,0.002 -0.2686,0.338695 -0.61338,0.5 -1.10742,0.5 h -2.98437 v 1.933594 c 0,0.2897 0.0773,0.54825 0.25781,0.726562 0.18054,0.178313 0.4405,0.253907 0.73242,0.253907 h 1.43555 c 0.25581,0 0.49224,-0.07896 0.66406,-0.242188 0.12017,-0.114445 0.1354,-0.291955 0.17188,-0.457031 h 1.21289 c -0.0718,0.737269 -0.34642,1.241979 -0.92578,1.5214842 -0.20586,0.097509 -0.44519,0.1484375 -0.72657,0.1484375 h -2.23828 c -0.50719,0 -0.89736,-0.1701439 -1.22461,-0.5312497 v -0.002 h -0.002 c -0.33637,-0.364867 -0.49805,-0.786457 -0.49805,-1.304688 v -5.160156 c 0,-0.515565 0.14972,-0.936555 0.45703,-1.300781 0.30167,-0.357526 0.67159,-0.525391 1.17188,-0.525391 z m 0.50195,1.017578 c -0.29376,0 -0.5571,0.08172 -0.73633,0.267578 -0.17922,0.185858 -0.2539,0.449494 -0.2539,0.75 v 1.953125 h 2.29297 c 0.28055,0 0.54091,-0.08233 0.74609,-0.248047 v -0.002 c 0.22277,-0.181522 0.33789,-0.460242 0.33789,-0.767578 v -0.974609 c 0,-0.312469 -0.11617,-0.593536 -0.34961,-0.757813 -0.20505,-0.14858 -0.45928,-0.220703 -0.73437,-0.220703 z m 0,0.447266 h 1.30274 c 0.20219,0 0.35264,0.04759 0.47461,0.136719 l 0.002,0.002 c 0.10677,0.07514 0.16016,0.175818 0.16016,0.392578 v 0.974609 c 0,0.209293 -0.0544,0.326181 -0.17188,0.421875 -0.12244,0.09889 -0.26657,0.148438 -0.46484,0.148438 h -1.84571 v -1.50586 c 0,-0.228723 0.053,-0.362649 0.12891,-0.441406 0.0759,-0.07876 0.19749,-0.128906 0.41406,-0.128906 z"
             id="path2253" />
        </g>
        <g
           id="path2214">
          <path
             style="color:#000000;-inkscape-font-specification:Uroob;stroke:none;-inkscape-stroke:none"
             d="m 162.78014,-9.3592558 q -1.8334,0 -1.8334,-1.5971412 v -9.15757 h 1.71055 v 8.656692 q 0,0.567032 0.36857,0.689889 0.17011,0.0567 0.39692,0.04725 0.23626,-0.0095 0.51033,-0.0095 v 1.3703282 z"
             id="path2257" />
          <path
             style="color:#000000;-inkscape-font-specification:Uroob;fill:#b3b3b3;stroke:none;-inkscape-stroke:none"
             d="m 160.72266,-20.337891 v 9.38086 c 0,0.575106 0.17399,1.0525621 0.53515,1.3671872 0.36117,0.3146252 0.87793,0.4531251 1.52149,0.453125 h 1.37695 v -1.8164062 h -0.22266 c -0.18529,0 -0.35856,0.0033 -0.51953,0.0098 -0.13032,0.0054 -0.23673,-0.0079 -0.31836,-0.03516 -0.074,-0.02465 -0.11097,-0.05878 -0.14843,-0.128906 -0.0375,-0.07012 -0.0664,-0.184792 -0.0664,-0.349609 v -8.88086 z m 0.44726,0.447266 h 1.26367 v 8.433594 c 0,0.213204 0.0337,0.400707 0.11914,0.560547 0.0854,0.15984 0.2306,0.284547 0.40235,0.341796 0.14518,0.04839 0.30447,0.06576 0.47656,0.05859 0.0851,-0.0034 0.18424,-0.0043 0.27734,-0.0059 v 0.9199217 h -0.92968 c -0.57871,0 -0.9766,-0.1279484 -1.22657,-0.3457031 -0.24996,-0.2177546 -0.38281,-0.5396436 -0.38281,-1.0292966 z"
             id="path2259" />
        </g>
        <g
           id="path2216">
          <path
             style="color:#000000;-inkscape-font-specification:Uroob;stroke:none;-inkscape-stroke:none"
             d="m 168.35596,-18.58298 q 0.56703,0 1.03956,0.283516 v -3.090326 h 1.62549 v 11.9832815 h -1.48373 v -0.4441752 q -0.61429,0.4441752 -1.37033,0.4441752 h -0.66154 q -1.20967,0 -1.91846,-0.7843945 -0.71824,-0.784395 -0.71824,-2.003514 v -3.591204 q 0,-1.984613 1.33253,-2.589447 0.46307,-0.207912 1.11516,-0.207912 z m 1.03956,7.087903 v -5.037136 q 0,-0.274066 -0.25517,-0.463077 -0.25516,-0.189011 -0.51978,-0.189011 h -1.00175 q -0.97341,0 -1.09627,0.926153 -0.0378,0.283516 -0.0378,0.595384 v 3.439995 q 0.009,0.737142 0.16066,0.973406 0.29297,0.453626 0.97341,0.453626 h 0.81274 q 0.51978,0 0.86,-0.415824 0.10396,-0.132308 0.10396,-0.283516 z"
             id="path2263" />
          <path
             style="color:#000000;-inkscape-font-specification:Uroob;fill:#b3b3b3;stroke:none;-inkscape-stroke:none"
             d="m 169.17187,-21.613281 v 3.03125 c -0.26297,-0.10516 -0.52264,-0.22461 -0.8164,-0.22461 h -1.03906 c -0.45846,0 -0.86259,0.07386 -1.20704,0.228516 -0.97206,0.441218 -1.46484,1.419913 -1.46484,2.792969 v 3.589843 c 0,0.856602 0.2596,1.588868 0.77734,2.154297 0.5149,0.5698201 1.22927,0.8574222 2.08399,0.8574222 h 0.66016 c 0.41875,0 0.78646,-0.1820039 1.14843,-0.3710937 v 0.3710937 h 1.92969 V -21.613281 Z m 0.44727,0.447265 h 1.17773 v 11.5371097 h -1.0371 v -0.6582027 l -0.35352,0.255859 c -0.37427,0.2706266 -0.77994,0.4023437 -1.24023,0.4023437 h -0.66016 c -0.75818,0 -1.32375,-0.2348989 -1.75391,-0.7109377 v -0.002 c -0.43991,-0.48043 -0.66015,-1.084627 -0.66015,-1.853516 v -3.589843 c 0,-1.273092 0.39653,-2.021493 1.20117,-2.386719 0.27298,-0.122564 0.61244,-0.1875 1.02344,-0.1875 h 1.03906 c 0.3408,0 0.64455,0.08322 0.92578,0.251953 l 0.33789,0.203125 z m -2,3.757813 c -0.35988,0 -0.6718,0.08874 -0.9043,0.285156 -0.23249,0.196416 -0.36805,0.489111 -0.41406,0.835938 -0.0266,0.199643 -0.0391,0.408065 -0.0391,0.625 v 3.441406 c 0.006,0.506448 0.0383,0.847126 0.19531,1.091797 0.23806,0.368608 0.65886,0.55664 1.16211,0.55664 h 0.8125 c 0.40607,0 0.77109,-0.177691 1.0332,-0.498047 v -0.002 l 0.002,-0.002 c 0.0948,-0.120703 0.15234,-0.267936 0.15234,-0.419922 v -5.037109 c 0,-0.252019 -0.1341,-0.485841 -0.3457,-0.642578 -0.19978,-0.147987 -0.42276,-0.234375 -0.65235,-0.234375 z m 0,0.447266 h 1.00195 c 0.12325,0 0.24629,0.0405 0.38672,0.144531 0.12863,0.09528 0.16407,0.171754 0.16406,0.285156 v 5.037109 c 10e-6,0.04904 -0.0141,0.08788 -0.0566,0.142578 -0.19062,0.231215 -0.39826,0.332032 -0.68359,0.332032 h -0.8125 c -0.404,0 -0.63259,-0.115337 -0.78516,-0.351563 -0.0451,-0.07109 -0.1189,-0.378032 -0.125,-0.851562 v -0.002 -3.4375 c 0,-0.19889 0.0114,-0.388029 0.0352,-0.566407 0.0359,-0.270608 0.12488,-0.440432 0.25781,-0.552734 0.13293,-0.112302 0.32813,-0.179687 0.61719,-0.179687 z"
             id="path2265" />
        </g>
      </g>
      <g
         id="g2177"
         style="stroke:#b3b3b3"
         transform="matrix(1.1001184,0,0,1.1001184,-13.506826,-57.994832)">
        <path
           style="font-variation-settings:normal;fill:#00aa00;fill-opacity:1;stroke:#b3b3b3;stroke-width:0.405999;stroke-linecap:butt;stroke-linejoin:miter;stroke-miterlimit:4;stroke-dasharray:none;stroke-dashoffset:0;stroke-opacity:1;marker:none;paint-order:fill markers stroke;stop-color:#000000"
           d="m 123.06783,31.493987 c 0.0891,-0.07216 0.22974,-0.189265 0.31239,-0.260239 0.22322,-0.191672 0.81642,-0.790212 1.00216,-1.011182 0.88751,-1.055848 1.395,-2.163865 1.55361,-3.392049 0.0362,-0.28004 0.0437,-0.949064 0.0141,-1.259496 -0.0766,-0.804199 -0.29284,-1.565419 -0.63831,-2.247053 -0.19357,-0.381937 -0.39829,-0.667866 -0.70065,-0.978587 -0.63593,-0.65351 -1.4191,-1.052336 -2.27971,-1.160937 -0.20866,-0.02633 -0.64298,-0.03041 -0.81894,-0.0077 -0.84087,0.108581 -1.48945,0.486566 -1.91184,1.114199 -0.44579,0.662398 -0.47343,1.354081 -0.075,1.87703 0.0444,0.05829 0.0683,0.100613 0.0568,0.100613 -0.0373,0 -0.21681,-0.09915 -0.29065,-0.160522 -0.19888,-0.165269 -0.38555,-0.487873 -0.4748,-0.820513 -0.20031,-0.746586 0.003,-1.586138 0.5443,-2.250147 0.94305,-1.15637 2.97655,-1.777582 4.78464,-1.461666 1.02125,0.178437 2.06756,0.597992 2.9412,1.179383 0.3001,0.199702 0.53991,0.395196 0.87664,0.714628 l 0.28267,0.268143 v 4.943645 4.943644 h -2.67037 -2.67037 z"
           id="path2173"
           inkscape:connector-curvature="0" />
        <path
           style="font-variation-settings:normal;opacity:1;fill:#00aa00;fill-opacity:1;stroke:#b3b3b3;stroke-width:0.405999;stroke-linecap:butt;stroke-linejoin:miter;stroke-miterlimit:4;stroke-dasharray:none;stroke-dashoffset:0;stroke-opacity:1;marker:none;paint-order:fill markers stroke;stop-color:#000000;stop-opacity:1"
           d="m 117.92174,28.733696 c -1.35058,-0.09888 -2.90275,-0.712551 -3.96651,-1.56822 -0.0917,-0.07369 -0.29289,-0.253768 -0.44728,-0.400177 l -0.2807,-0.266199 v -4.943644 -4.943644 c 1.77469,0.0045 3.5497,-0.0076 5.32424,0.0054 -0.72235,0.626105 -1.49741,1.373263 -1.98496,2.091551 -0.56141,0.839436 -0.89362,1.702758 -1.02435,2.661931 -0.0429,0.314554 -0.0464,1.131241 -0.006,1.452713 0.11507,0.921021 0.40789,1.774752 0.86543,2.523384 0.29506,0.482758 0.97002,1.062932 1.58455,1.362025 0.49806,0.2424 0.94121,0.348373 1.51011,0.36112 0.4544,0.0102 0.74761,-0.03197 1.11491,-0.160314 0.37916,-0.132477 0.70605,-0.340216 0.98327,-0.62486 0.68446,-0.702792 0.82712,-1.594503 0.35437,-2.215014 -0.0447,-0.05866 -0.0688,-0.101349 -0.0575,-0.101349 0.0373,0 0.21685,0.09918 0.29055,0.160523 0.23457,0.195227 0.43154,0.574428 0.51534,0.992148 0.0404,0.201253 0.0367,0.647297 -0.006,0.865384 -0.0864,0.429926 -0.28514,0.848644 -0.5706,1.202246 -0.12191,0.150922 -0.41505,0.431382 -0.58198,0.556695 -0.38394,0.288198 -0.87016,0.534558 -1.38945,0.704004 -0.37947,0.123818 -0.83201,0.218458 -1.26015,0.263518 -0.25834,0.0272 -0.73765,0.0375 -0.96609,0.02078 z"
           id="path2175"
           inkscape:connector-curvature="0"
           sodipodi:nodetypes="scscccccscsssssssscccsssss" />
      </g>
      <g
         aria-label="mm"
         transform="scale(0.99254066,1.0075154)"
         id="text2181"
         style="font-size:34.445px;font-family:Uroob;-inkscape-font-specification:Uroob;letter-spacing:0px;word-spacing:0px;fill:#00aa00;stroke:#b3b3b3;stroke-width:0.446647;paint-order:fill markers stroke">
        <g
           id="path2185">
          <path
             style="color:#000000;-inkscape-font-specification:Uroob;stroke:none;-inkscape-stroke:none"
             d="m 142.15456,-38.298682 q 0.75685,-1.17732 2.00144,-1.17732 h 3.19558 q 1.46324,0 2.52283,0.992312 1.05959,0.992312 1.05959,2.472371 v 12.916875 h -2.87602 v -12.361853 q 0,-0.639116 -0.37002,-1.076406 -0.35319,-0.454109 -1.04277,-0.454109 h -2.28736 q -0.84094,0 -1.09323,1.1605 -0.0673,0.30274 -0.0673,0.555022 v 12.176846 h -2.89284 v -12.630955 q 0,-0.840942 -0.8914,-1.177319 -0.25228,-0.100913 -0.50457,-0.08409 h -2.45555 q -1.00913,0 -1.00913,2.371457 V -23.09444 H 132.551 v -16.381558 h 2.57328 v 1.009131 q 0.74003,-1.009131 1.79962,-1.009131 h 3.02739 q 1.41279,0 2.20327,1.17732 z"
             id="path2192" />
          <path
             style="color:#000000;-inkscape-font-specification:Uroob;fill:#b3b3b3;stroke:none;-inkscape-stroke:none"
             d="m 132.32812,-39.699219 v 16.828125 h 3.33985 v -11.74414 c 0,-0.774647 0.0872,-1.345522 0.23437,-1.691407 0.14719,-0.345884 0.30188,-0.457031 0.55078,-0.457031 h 2.4629 0.008 c 0.13368,-0.0089 0.26587,0.01221 0.40625,0.06836 h 0.002 l 0.002,0.002 c 0.53676,0.202547 0.74805,0.48703 0.74805,0.96875 v 12.853515 h 3.33789 v -12.40039 c 0,-0.14833 0.0205,-0.316861 0.0625,-0.50586 v -0.002 c 0.0786,-0.361667 0.20074,-0.611861 0.34375,-0.763672 0.14301,-0.15181 0.3023,-0.220703 0.53125,-0.220703 h 2.28711 c 0.4107,0 0.67497,0.120046 0.86719,0.367188 l 0.002,0.0039 0.004,0.0039 c 0.21202,0.250572 0.3164,0.548662 0.3164,0.931641 v 12.585937 h 3.32422 v -13.140625 c 0,-1.039998 -0.38403,-1.935358 -1.13086,-2.634765 -0.74382,-0.6966 -1.6498,-1.052735 -2.67578,-1.052735 h -3.19531 c -0.81446,0 -1.48678,0.411708 -2.00781,1.097657 -0.55265,-0.690704 -1.28702,-1.097657 -2.19727,-1.097657 h -3.02734 c -0.6016,0 -1.11889,0.294848 -1.57617,0.730469 v -0.730469 z m 0.44532,0.447266 h 2.12695 v 1.466797 l 0.4043,-0.548828 c 0.46329,-0.631765 0.98364,-0.917969 1.61914,-0.917969 h 3.02734 c 0.87983,0 1.52492,0.344364 2.01758,1.078125 l 0.18945,0.28125 0.1836,-0.285156 c 0.47445,-0.738041 1.05514,-1.074219 1.81445,-1.074219 h 3.19531 c 0.92501,0 1.70214,0.305159 2.3711,0.931641 0.66596,0.623674 0.98828,1.375181 0.98828,2.308593 v 12.69336 h -2.42969 v -12.138672 c 0,-0.466029 -0.14038,-0.881488 -0.41797,-1.212891 -3.7e-4,-4.8e-4 -0.002,4.79e-4 -0.002,0 -0.27874,-0.357385 -0.70874,-0.541016 -1.2168,-0.541015 h -2.28711 c -0.33168,-10e-7 -0.63407,0.126305 -0.85547,0.361328 -0.2214,0.235022 -0.36551,0.564563 -0.45508,0.976562 -0.0474,0.213881 -0.0723,0.414116 -0.0723,0.601563 v 11.953125 h -2.44727 v -12.40625 c 0,-0.638063 -0.3822,-1.138207 -1.03125,-1.384766 -6.2e-4,-2.48e-4 -0.001,2.47e-4 -0.002,0 -0.19542,-0.07787 -0.39755,-0.113083 -0.59961,-0.09961 l 0.0137,-0.002 h -2.45508 c -0.42384,0 -0.77369,0.285868 -0.96289,0.730468 -0.18919,0.444601 -0.26953,1.058911 -0.26953,1.865235 v 11.296875 h -2.44726 z"
             id="path2194" />
        </g>
        <g
           id="path2187">
          <path
             style="color:#000000;-inkscape-font-specification:Uroob;stroke:none;-inkscape-stroke:none"
             d="m 162.20263,-38.298682 q 0.75685,-1.17732 2.00144,-1.17732 h 3.19558 q 1.46324,0 2.52283,0.992312 1.05959,0.992312 1.05959,2.472371 v 12.916875 h -2.87603 v -12.361853 q 0,-0.639116 -0.37001,-1.076406 -0.3532,-0.454109 -1.04277,-0.454109 h -2.28736 q -0.84095,0 -1.09323,1.1605 -0.0673,0.30274 -0.0673,0.555022 v 12.176846 h -2.89285 v -12.630955 q 0,-0.840942 -0.89139,-1.177319 -0.25229,-0.100913 -0.50457,-0.08409 h -2.45555 q -1.00913,0 -1.00913,2.371457 v 11.520911 h -2.89284 v -16.381558 h 2.57328 v 1.009131 q 0.74003,-1.009131 1.79962,-1.009131 h 3.02739 q 1.41278,0 2.20327,1.17732 z"
             id="path2198" />
          <path
             style="color:#000000;-inkscape-font-specification:Uroob;fill:#b3b3b3;stroke:none;-inkscape-stroke:none"
             d="m 152.375,-39.699219 v 16.828125 h 3.33984 v -11.74414 c 0,-0.774647 0.0872,-1.345522 0.23438,-1.691407 0.14718,-0.345884 0.30383,-0.457031 0.55273,-0.457031 h 2.46289 0.006 c 0.13368,-0.0089 0.26782,0.01221 0.40821,0.06836 h 0.002 l 0.002,0.002 c 0.53675,0.202547 0.7461,0.487029 0.7461,0.96875 v 12.853515 h 3.33984 v -12.40039 c 0,-0.14833 0.0205,-0.316861 0.0625,-0.50586 v -0.002 c 0.0786,-0.361666 0.20074,-0.611862 0.34375,-0.763672 0.14301,-0.15181 0.3023,-0.220703 0.53125,-0.220703 h 2.28711 c 0.41069,0 0.67496,0.120044 0.86719,0.367188 l 0.002,0.0039 0.004,0.0039 c 0.21202,0.250572 0.3164,0.548661 0.3164,0.931641 v 12.585937 h 3.32227 v -13.140625 c 0,-1.039998 -0.38404,-1.935358 -1.13086,-2.634765 -0.74383,-0.6966 -1.64785,-1.052735 -2.67383,-1.052735 h -3.19727 c -0.81491,0 -1.48472,0.412914 -2.00585,1.09961 -0.55274,-0.691549 -1.28646,-1.09961 -2.19727,-1.09961 h -3.02734 c -0.60161,0 -1.1189,0.294848 -1.57618,0.730469 v -0.730469 z m 0.44727,0.447266 h 2.12695 v 1.466797 l 0.40234,-0.548828 c 0.4633,-0.631765 0.9856,-0.917969 1.6211,-0.917969 H 160 c 0.87982,0 1.52491,0.344363 2.01758,1.078125 l 0.0762,0.115234 0.24023,-0.0332 0.0566,-0.08594 c 0.47446,-0.738041 1.0532,-1.074219 1.8125,-1.074219 h 3.19727 c 0.92501,0 1.70018,0.305159 2.36914,0.931641 0.66596,0.623674 0.98828,1.375181 0.98828,2.308593 v 12.69336 h -2.42773 v -12.138672 c 0,-0.466932 -0.14322,-0.883129 -0.42188,-1.214844 -0.27879,-0.356012 -0.70777,-0.539063 -1.21484,-0.539062 h -2.28711 c -0.33168,-10e-7 -0.63602,0.126305 -0.85742,0.361328 -0.2214,0.235023 -0.36552,0.564562 -0.45508,0.976562 -0.0474,0.213881 -0.0723,0.414116 -0.0723,0.601563 v 11.953125 h -2.44531 v -12.40625 c 0,-0.638606 -0.3851,-1.138429 -1.03515,-1.384766 -0.19486,-0.07736 -0.39819,-0.113041 -0.59961,-0.09961 l 0.0156,-0.002 h -2.45508 c -0.42384,0 -0.7737,0.285868 -0.96289,0.730468 -0.18919,0.444601 -0.26953,1.058911 -0.26953,1.865235 v 11.296875 h -2.44726 z"
             id="path2200" />
        </g>
      </g>
    </g>
  </g>
</svg>
