<?xml version="1.0" encoding="UTF-8" standalone="no"?>
<svg
   xmlns:dc="http://purl.org/dc/elements/1.1/"
   xmlns:cc="http://creativecommons.org/ns#"
   xmlns:rdf="http://www.w3.org/1999/02/22-rdf-syntax-ns#"
   xmlns:svg="http://www.w3.org/2000/svg"
   xmlns="http://www.w3.org/2000/svg"
   xmlns:sodipodi="http://sodipodi.sourceforge.net/DTD/sodipodi-0.dtd"
   xmlns:inkscape="http://www.inkscape.org/namespaces/inkscape"
   version="1.1"
   x="0px"
   y="0px"
   viewBox="0 0 155.58829 136.79241"
   xml:space="preserve"
   id="svg2"
   inkscape:version="0.91 r13725"
   sodipodi:docname="example_figure.svg"
   width="155.58829"
   height="136.7924"><metadata
     id="metadata16"><rdf:RDF><cc:Work
         rdf:about=""><dc:format>image/svg+xml</dc:format><dc:type
           rdf:resource="http://purl.org/dc/dcmitype/StillImage" /><dc:title></dc:title></cc:Work></rdf:RDF></metadata><defs
     id="defs14" /><sodipodi:namedview
     pagecolor="#ffffff"
     bordercolor="#666666"
     borderopacity="1"
     objecttolerance="10"
     gridtolerance="10"
     guidetolerance="10"
     inkscape:pageopacity="0"
     inkscape:pageshadow="2"
     inkscape:window-width="640"
     inkscape:window-height="480"
     id="namedview12"
     showgrid="false"
     inkscape:zoom="1.3300781"
     inkscape:cx="208.6192"
     inkscape:cy="-126.31468"
     inkscape:current-layer="svg2"
     fit-margin-top="4"
     fit-margin-left="4"
     fit-margin-right="4"
     fit-margin-bottom="4" /><path
     d="m 26.138244,61.956575 9.839209,0 9.839227,0 9.839218,0 9.839218,0 12.299024,0 0,-4.29308 -9.839218,0 0,-32.198096 c 0,-1.187037 -1.099534,-2.14654 -2.459806,-2.14654 l -9.839218,0 c -1.360273,0 -2.459807,0.959503 -2.459807,2.14654 l 0,32.198096 -4.919605,0 0,-51.5169551 C 48.276486,4.9595033 47.176943,4 45.81668,4 l -9.839227,0 c -1.360264,0 -2.459798,0.9595033 -2.459798,2.1465399 l 0,51.5169551 -4.919614,0 0,-23.611937 c 0,-1.187036 -1.099525,-2.14654 -2.459797,-2.14654 l -9.839218,0 c -1.360273,0 -2.459807,0.959504 -2.459807,2.14654 l 0,23.611937 -9.839219,0 0,4.29308 12.299026,0 9.839218,0 z m 31.97746,-34.344636 4.919605,0 0,30.051556 -4.919605,0 0,-30.051556 z M 38.437259,8.2930798 l 4.919614,0 0,49.3704152 -4.919614,0 0,-49.3704152 z m -19.678436,27.9050192 4.919614,0 0,21.465396 -4.919614,0 0,-21.465396 z"
     id="path4"
     inkscape:connector-curvature="0" /><path
     d="m 151.3546,28.66589 c -0.10578,-0.798513 -0.23368,-1.592733 -0.41571,-2.374073 -0.005,-0.02361 -0.0148,-0.04508 -0.0197,-0.06654 -1.24714,-5.286933 -4.2235,-10.148845 -8.69788,-14.053402 -4.47438,-3.9045556 -10.04584,-6.5018688 -16.10434,-7.5901645 -0.0271,-0.00429 -0.0516,-0.012879 -0.0763,-0.017173 -0.89536,-0.1588439 -1.8055,-0.270464 -2.72054,-0.3627652 -0.15743,-0.015026 -0.3124,-0.047224 -0.46983,-0.060103 C 121.78037,4.0493704 120.70052,4 119.61082,4 c -1.08969,0 -2.16955,0.04937 -3.23957,0.1438182 -0.15988,0.015026 -0.31239,0.045077 -0.46981,0.060103 -0.91505,0.092302 -1.82518,0.2039213 -2.72055,0.3627653 -0.0271,0.0043 -0.0516,0.012879 -0.0763,0.017173 -6.0585,1.0882958 -11.62995,3.6856091 -16.104342,7.5901655 -0.0246,0.02147 -0.032,0.05152 -0.0566,0.07298 -5.74857,5.048661 -9.31037,11.994864 -9.31037,19.658012 0,7.663147 3.5618,14.60935 9.31037,19.658013 0.0246,0.02147 0.032,0.05152 0.0566,0.07299 4.474382,3.904557 10.045832,6.501867 16.104342,7.590164 0.0271,0.0046 0.0516,0.0129 0.0763,0.01716 0.89537,0.158844 1.8055,0.270464 2.72055,0.362765 0.15742,0.01501 0.31239,0.04723 0.46982,0.06011 1.07001,0.09445 2.14986,0.143818 3.23956,0.143818 17.63189,0 31.97747,-12.518619 31.97747,-27.905017 0,-0.950918 -0.0566,-1.893248 -0.16481,-2.826992 -0.0148,-0.139526 -0.0516,-0.272611 -0.0689,-0.412136 z M 106.68454,11.167297 c 0.0468,-0.02147 0.0935,-0.04079 0.13775,-0.06225 0.68876,-0.324127 1.39717,-0.62035 2.1179,-0.890814 0.12299,-0.04722 0.24844,-0.09016 0.37389,-0.135232 0.64446,-0.2318263 1.30124,-0.4421866 1.9703,-0.6310829 0.18694,-0.053666 0.37389,-0.1051801 0.56329,-0.1545505 0.61496,-0.1609907 1.23975,-0.2983696 1.87192,-0.4207222 0.23121,-0.045073 0.45999,-0.094447 0.69367,-0.1330849 0.61987,-0.1051806 1.25203,-0.1846029 1.8842,-0.2511456 0.23615,-0.025758 0.46983,-0.060103 0.70596,-0.079422 0.85847,-0.072982 1.72679,-0.1159132 2.6074,-0.1159132 0.88061,0 1.74893,0.042928 2.6074,0.1159132 0.23613,0.019319 0.46982,0.05581 0.70596,0.079422 0.63463,0.068689 1.26434,0.145965 1.88421,0.2511456 0.23368,0.038639 0.46244,0.088008 0.69366,0.1330849 0.63218,0.1223526 1.25696,0.2597315 1.87192,0.4207222 0.1894,0.049366 0.37635,0.100887 0.56329,0.1545505 0.66906,0.1888963 1.32583,0.3971104 1.9703,0.6310829 0.12545,0.04507 0.2509,0.08801 0.37389,0.135232 0.72318,0.272611 1.42915,0.568833 2.1179,0.890814 0.0468,0.02147 0.0935,0.04079 0.13774,0.06225 1.55706,0.742702 3.02064,1.616344 4.376,2.603753 L 119.61082,28.869811 102.30855,13.77105 c 1.35536,-0.985262 2.81648,-1.861051 4.37599,-2.603753 z m 33.70671,5.638961 c 0.58297,0.611763 1.13643,1.244993 1.65053,1.90398 0,0 0.003,0.0022 0.003,0.0022 0.48211,0.620351 0.92734,1.264312 1.34058,1.925447 0.007,0.01073 0.0147,0.02361 0.0221,0.03434 0.82403,1.324414 1.50786,2.726105 2.03179,4.187899 0.0123,0.03864 0.0246,0.07728 0.037,0.113767 0.22384,0.633229 0.40833,1.281484 0.57067,1.936179 0.0393,0.160989 0.0763,0.319834 0.11316,0.480823 0.13037,0.588153 0.23368,1.184891 0.31485,1.788068 0.0172,0.139526 0.0443,0.279052 0.0615,0.418575 0.005,0.05367 0.005,0.107328 0.01,0.160991 l -20.99443,0 14.84001,-12.952221 z m -41.560862,0 17.302262,15.09876 -17.302262,15.098763 c -3.91355,-4.097746 -6.27742,-9.361061 -6.27742,-15.098763 0,-5.7377 2.36387,-11.001016 6.27742,-15.09876 z m 18.173032,38.594787 c -0.2386,-0.01933 -0.47228,-0.05582 -0.70841,-0.08158 -0.63217,-0.06868 -1.26188,-0.14596 -1.88175,-0.251146 -0.23368,-0.03865 -0.46491,-0.088 -0.69614,-0.133081 -0.63216,-0.122356 -1.25695,-0.259734 -1.86945,-0.420727 -0.1894,-0.04933 -0.37635,-0.100878 -0.56329,-0.154548 -0.66906,-0.188894 -1.32584,-0.397111 -1.9703,-0.631081 -0.12545,-0.04507 -0.2509,-0.08801 -0.37389,-0.135235 -0.72073,-0.270464 -1.42914,-0.566687 -2.11543,-0.89081 -0.0468,-0.02149 -0.0959,-0.04292 -0.14267,-0.06441 -1.55706,-0.7427 -3.02065,-1.616343 -4.37354,-2.601605 l 18.32063,-15.985282 25.91404,0 c -0.004,0.04507 -0.003,0.09445 -0.007,0.139525 -0.0344,0.302662 -0.0959,0.594591 -0.14267,0.89296 -0.0713,0.4658 -0.1402,0.933745 -0.24352,1.390958 -0.0713,0.313395 -0.16726,0.62035 -0.25335,0.929452 -0.11807,0.429309 -0.23368,0.858616 -0.37882,1.279338 -0.10823,0.313395 -0.2386,0.62035 -0.35912,0.927306 -0.15989,0.401402 -0.31732,0.802805 -0.5018,1.193476 -0.14267,0.306955 -0.30502,0.605324 -0.46245,0.905839 -0.19925,0.377792 -0.39849,0.751289 -0.61741,1.118347 -0.1771,0.294077 -0.36897,0.581712 -0.55837,0.86935 -0.23369,0.352032 -0.47475,0.704064 -0.72811,1.045364 -0.20907,0.27905 -0.428,0.553807 -0.64939,0.824272 -0.26811,0.330566 -0.54608,0.654694 -0.83387,0.972382 -0.2386,0.261878 -0.48212,0.517316 -0.73301,0.770608 -0.30257,0.304808 -0.6125,0.603178 -0.93227,0.895107 -0.26321,0.240413 -0.53378,0.478678 -0.80929,0.710504 -0.33453,0.279051 -0.67644,0.549515 -1.02573,0.813539 -0.2878,0.218948 -0.57806,0.433601 -0.87815,0.641816 -0.36405,0.253291 -0.73794,0.491557 -1.1143,0.727676 -0.30992,0.19319 -0.61986,0.388525 -0.93964,0.570981 -0.39111,0.22324 -0.79697,0.431454 -1.20285,0.637519 -0.32714,0.167432 -0.65184,0.334864 -0.98884,0.491561 -0.42062,0.19319 -0.856,0.369205 -1.2914,0.543072 -0.33944,0.137382 -0.67644,0.279052 -1.02573,0.405699 -0.45506,0.163136 -0.92242,0.302661 -1.38733,0.444331 -0.34683,0.10518 -0.68874,0.221097 -1.0405,0.313397 -0.49441,0.130939 -1.0036,0.233971 -1.51277,0.339152 -0.33946,0.07084 -0.67153,0.154553 -1.01591,0.214656 -0.57067,0.09875 -1.15365,0.165279 -1.73662,0.231823 -0.29517,0.03433 -0.58052,0.08586 -0.87815,0.111625 -0.88061,0.07084 -1.77597,0.113762 -2.68365,0.113762 -0.88061,0 -1.74892,-0.04292 -2.60739,-0.115911 z"
     id="path6"
     inkscape:connector-curvature="0" /><path
     d="m 43.784876,103.25601 20.517231,9.94706 c 0.843723,0.40784 1.891597,0.34774 2.668895,-0.15884 l 37.880988,-24.792539 28.04178,18.352909 2.94929,-3.43446 -29.51764,-19.318857 c -0.87324,-0.575274 -2.07608,-0.575274 -2.94931,0 L 65.295875,108.77261 44.549872,98.716077 c -0.959318,-0.465808 -2.157245,-0.317695 -2.932078,0.358469 l -22.138243,19.318854 3.478168,3.03521 20.827157,-18.1726 z"
     id="path8"
     inkscape:connector-curvature="0" /><path
     d="m 149.12847,68.396199 -142.668666,0 C 5.099531,68.396199 4,69.3557 4,70.542738 l 0,60.103112 c 0,1.18704 1.099531,2.14655 2.459804,2.14655 l 142.668666,0 c 1.36028,0 2.45981,-0.95951 2.45981,-2.14655 l 0,-60.103112 c 0,-1.187038 -1.09953,-2.146539 -2.45981,-2.146539 z m -2.45979,60.103121 -137.749074,0 0,-55.810043 137.749074,0 0,55.810043 z"
     id="path10"
     inkscape:connector-curvature="0" /></svg>